<svg width="1958" height="347" viewBox="0 0 1958 347" fill="none" xmlns="http://www.w3.org/2000/svg">
<path d="M201.928 202.17L204.6 204.841L221.548 221.784L221.472 221.707L228.725 228.958C244.604 244.833 247.123 269.713 234.679 288.411L216.968 270.705C205.974 259.715 188.415 259.104 176.734 269.255L91.1543 346.72L104.743 303.141C112.759 277.421 105.811 249.335 86.7256 230.255L83.9775 227.508C77.0304 220.563 71.7631 212.091 68.5566 202.704C65.1212 192.783 60.3873 178.663 54.8906 162.483L138.868 246.436L149.175 239.185L52.8291 142.869C48.325 138.29 44.8894 132.795 42.8281 126.689C37.7131 111.654 32.522 96.2376 27.4834 81.4316L170.398 224.303L180.704 217.052L21.9873 58.3828C19.697 56.0932 17.9409 53.2697 16.8721 50.1406C8.77969 26.3289 2.44298 7.55394 0 0.379883L201.928 202.17ZM638.764 143.021C650.062 143.021 660.216 145.462 669.301 150.347V150.423C678.386 155.384 685.638 162.558 690.982 172.098C696.326 181.638 698.998 193.391 698.998 207.129C698.998 220.866 696.326 232.467 690.982 242.007C685.638 251.47 678.386 258.721 669.301 263.605C660.216 268.49 649.986 270.933 638.764 270.933C627.541 270.933 617.311 268.49 608.227 263.529C599.065 258.569 591.889 251.394 586.545 241.854C581.201 232.315 578.528 220.867 578.528 207.053C578.528 193.239 581.201 181.561 586.545 172.021C591.889 162.482 599.142 155.231 608.227 150.347C617.311 145.462 627.465 143.021 638.764 143.021ZM368.05 145.006C377.898 145.006 386.448 146.762 393.624 150.272C400.8 153.783 406.374 158.82 410.268 165.23C414.161 171.641 416.146 179.35 416.146 188.203C416.146 197.056 414.161 204.689 410.268 211.176C406.374 217.663 400.8 222.699 393.624 226.21C386.448 229.721 377.898 231.477 368.05 231.477H350.032V268.873H315.449V145.006H368.05ZM476.685 145.006C486.533 145.006 495.083 146.762 502.259 150.272C509.435 153.783 515.009 158.743 518.902 165.23C522.796 171.641 524.78 179.579 524.78 188.203C524.78 196.827 522.719 204.23 518.673 210.488L518.749 210.564C515.543 215.449 511.191 219.494 505.924 222.623L528.674 268.873H492.64L474.089 230.103H458.667V268.873H424.084V145.006H476.685ZM759.843 145.006C769.767 145.006 778.318 146.762 785.494 150.272C792.67 153.783 798.243 158.82 802.137 165.23C806.03 171.641 808.016 179.579 808.016 188.203C808.016 196.827 805.954 204.23 801.908 210.488L801.832 210.564C798.702 215.449 794.35 219.494 789.082 222.623L811.833 268.873H775.799L757.247 230.103H741.826V268.873H707.242V145.006H759.843ZM1029.26 179.731C1030.71 182.631 1032.09 185.455 1033.46 188.355C1033.92 189.348 1034.38 190.416 1034.91 191.484C1035.37 190.492 1035.83 189.424 1036.29 188.355C1037.58 185.532 1038.88 182.632 1040.25 179.731L1056.97 145.006H1096.29L1051.48 226.668V268.873H1018.04V226.668L971.852 145.006H1011.47L1029.26 179.731ZM570.283 268.797H535.699V144.93H570.283V268.797ZM853.441 268.797H818.858V144.93H853.441V268.797ZM966.89 174.236H931.619V268.797H897.035V174.236H861.765V144.93H966.89V174.236ZM1207.45 159.583H1167.6V268.721H1150.88V159.583H1111.03V144.93H1207.45V159.583ZM1316.16 268.721H1298.22L1286.69 235.292H1235.77L1223.86 268.721H1206.22L1251.5 144.93H1271.27L1316.16 268.721ZM1635.99 159.583H1570.87V198.125H1631.25V212.778H1570.87V253.99H1635.99V268.721H1554.07V144.93H1635.99V159.583ZM1670.34 253.99H1729.43V268.721H1653.55V144.93H1670.34V253.99ZM1762.03 268.721H1745.23V144.93H1762.03V268.721ZM1860.74 159.583H1795.54V198.125H1856.01V212.778H1795.54V253.99H1860.74V268.721H1778.75V144.93H1860.74V159.583ZM1957.62 159.583H1895.02V198.506H1952.74V213.083H1895.02V268.721H1878.23V144.93H1957.62V159.583ZM1359.06 170.726C1360.9 173.473 1362.73 176.144 1364.48 178.815C1366.24 181.487 1368 184.158 1369.75 186.829C1370.97 188.737 1372.19 190.645 1373.42 192.553C1374.64 190.645 1375.94 188.737 1377.16 186.829C1378.91 184.158 1380.67 181.487 1382.5 178.815C1384.33 176.144 1386.17 173.473 1387.92 170.726L1405.86 144.93H1424.46L1383.11 204.688L1427.01 268.644H1407.69L1386.39 237.734C1384.64 235.216 1382.96 232.697 1381.36 230.255C1379.68 227.813 1378.07 225.37 1376.39 222.852C1375.32 221.249 1374.26 219.647 1373.19 218.044C1372.12 219.646 1371.05 221.249 1369.98 222.852C1368.3 225.294 1366.62 227.813 1364.94 230.255C1363.26 232.773 1361.51 235.292 1359.83 237.811L1338.37 268.72H1319.44L1363.8 205.375L1322.27 144.93H1341.58L1359.06 170.726ZM1492.54 144.853C1501.24 144.853 1508.87 146.379 1515.21 149.432C1521.62 152.561 1526.51 156.911 1529.95 162.635C1533.38 168.359 1535.14 175.075 1535.14 182.936C1535.14 190.796 1533.3 197.512 1529.64 203.236C1525.98 208.96 1520.86 213.388 1514.29 216.44L1514.22 216.363C1512.69 217.126 1511.16 217.737 1509.48 218.271L1536.82 268.719H1517.73L1492.38 220.943H1462.69V268.643H1445.89V144.853H1492.54ZM638.764 172.861C633.343 172.861 628.762 174.235 625.021 176.906C621.204 179.577 618.379 183.47 616.395 188.583C614.41 193.696 613.418 199.879 613.418 206.977C613.418 214.074 614.41 220.18 616.395 225.217C618.379 230.254 621.204 234.146 625.021 236.817C628.839 239.489 633.343 240.862 638.764 240.862C644.184 240.862 648.841 239.489 652.582 236.817C656.323 234.146 659.223 230.254 661.132 225.217C663.04 220.18 664.033 214.15 664.033 206.977C664.033 199.803 663.04 193.696 661.132 188.583C659.223 183.47 656.323 179.577 652.582 176.906C648.765 174.235 644.184 172.861 638.764 172.861ZM1261.34 160.423C1259.13 167.368 1257.22 173.321 1255.62 178.281C1253.4 184.921 1251.42 191.027 1249.51 196.521L1240.88 220.792H1281.55L1273.18 196.599C1271.27 191.18 1269.28 185.073 1267.07 178.434C1265.47 173.397 1263.56 167.444 1261.34 160.423ZM300.106 0C299.992 0.339193 229.411 208.736 228.496 211.405L158.566 141.496L300.106 0ZM1462.69 206.519H1491.93C1497.42 206.519 1502.23 205.602 1506.2 203.694C1510.17 201.786 1513.23 199.039 1515.36 195.528C1517.5 192.018 1518.57 187.896 1518.57 183.012C1518.57 178.127 1517.5 173.929 1515.36 170.495C1513.23 166.985 1510.1 164.313 1506.13 162.405C1502.16 160.421 1497.42 159.506 1491.85 159.506H1462.69V206.519ZM458.591 203.314H474.089C477.6 203.314 480.577 202.704 483.097 201.406C485.616 200.109 487.601 198.354 488.976 196.064C490.35 193.851 491.037 191.256 491.037 188.203C491.037 185.15 490.35 182.479 488.976 180.266C487.601 178.052 485.616 176.297 483.097 175C480.577 173.703 477.6 173.092 474.089 173.092H458.591V203.314ZM741.826 203.314H757.323C760.835 203.314 763.813 202.704 766.332 201.406C768.851 200.109 770.836 198.354 772.21 196.064C773.584 193.851 774.271 191.256 774.271 188.203C774.271 185.15 773.584 182.479 772.21 180.266C770.836 178.053 768.851 176.297 766.332 175C763.813 173.703 760.835 173.092 757.323 173.092H741.826V203.314ZM349.956 203.009H365.454C368.966 203.009 371.943 202.399 374.462 201.178C376.981 199.957 378.967 198.201 380.341 195.987C381.715 193.774 382.402 191.256 382.402 188.203C382.402 185.15 381.715 182.555 380.341 180.342C378.967 178.129 376.981 176.45 374.462 175.229C371.943 174.008 368.966 173.398 365.454 173.397H349.956V203.009ZM1424.57 144.93H1424.46L1424.57 144.777V144.93Z" fill="#047B44"/>
</svg>
