<svg width="2400" height="900" viewBox="0 0 2400 900" fill="none" xmlns="http://www.w3.org/2000/svg">
<g filter="url(#filter0_ddd_75_509)">
<path d="M422.928 465.17L425.6 467.841L442.548 484.784L442.472 484.707L449.725 491.958C465.604 507.833 468.123 532.713 455.679 551.411L437.968 533.705C426.975 522.715 409.415 522.104 397.735 532.255L312.155 609.72L325.744 566.141C333.76 540.421 326.812 512.335 307.726 493.255L304.978 490.508C298.031 483.563 292.764 475.091 289.557 465.704C286.122 455.783 281.388 441.663 275.891 425.483L359.869 509.436L370.175 502.185L273.83 405.869C269.325 401.29 265.89 395.795 263.829 389.689C258.714 374.654 253.523 359.238 248.484 344.432L391.399 487.303L401.705 480.052L242.988 321.383C240.698 319.093 238.941 316.27 237.873 313.141C229.78 289.329 223.443 270.554 221 263.38L422.928 465.17ZM859.764 406.021C871.063 406.021 881.217 408.462 890.301 413.347V413.423C899.386 418.384 906.639 425.558 911.983 435.098C917.327 444.638 919.999 456.391 919.999 470.129C919.999 483.866 917.327 495.467 911.983 505.007C906.639 514.47 899.386 521.721 890.301 526.605C881.216 531.49 870.987 533.933 859.764 533.933C848.542 533.933 838.312 531.49 829.227 526.529C820.066 521.569 812.889 514.394 807.545 504.854C802.201 495.315 799.529 483.867 799.529 470.053C799.529 456.239 802.201 444.561 807.545 435.021C812.889 425.482 820.142 418.231 829.227 413.347C838.312 408.462 848.466 406.021 859.764 406.021ZM589.05 408.006C598.898 408.006 607.448 409.762 614.625 413.272C621.801 416.783 627.375 421.82 631.268 428.23C635.162 434.641 637.146 442.35 637.146 451.203C637.146 460.056 635.162 467.689 631.268 474.176C627.375 480.663 621.801 485.699 614.625 489.21C607.448 492.721 598.898 494.477 589.05 494.477H571.033V531.873H536.45V408.006H589.05ZM697.685 408.006C707.533 408.006 716.083 409.762 723.259 413.272C730.436 416.783 736.009 421.743 739.903 428.23C743.796 434.641 745.781 442.579 745.781 451.203C745.781 459.827 743.719 467.23 739.673 473.488L739.75 473.564C736.543 478.449 732.192 482.494 726.924 485.623L749.674 531.873H713.64L695.089 493.103H679.667V531.873H645.084V408.006H697.685ZM980.843 408.006C990.768 408.006 999.318 409.762 1006.49 413.272C1013.67 416.783 1019.24 421.82 1023.14 428.23C1027.03 434.641 1029.02 442.579 1029.02 451.203C1029.02 459.827 1026.95 467.23 1022.91 473.488L1022.83 473.564C1019.7 478.449 1015.35 482.494 1010.08 485.623L1032.83 531.873H996.799L978.248 493.103H962.827V531.873H928.243V408.006H980.843ZM1250.26 442.731C1251.71 445.631 1253.09 448.455 1254.46 451.355C1254.92 452.348 1255.38 453.416 1255.91 454.484C1256.37 453.492 1256.83 452.424 1257.29 451.355C1258.58 448.532 1259.88 445.632 1261.26 442.731L1277.97 408.006H1317.29L1272.48 489.668V531.873H1239.04V489.668L1192.85 408.006H1232.47L1250.26 442.731ZM791.284 531.797H756.7V407.93H791.284V531.797ZM1074.44 531.797H1039.86V407.93H1074.44V531.797ZM1187.89 437.236H1152.62V531.797H1118.04V437.236H1082.77V407.93H1187.89V437.236ZM1428.45 422.583H1388.6V531.721H1371.88V422.583H1332.03V407.93H1428.45V422.583ZM1537.16 531.721H1519.22L1507.69 498.292H1456.77L1444.86 531.721H1427.23L1472.5 407.93H1492.27L1537.16 531.721ZM1856.99 422.583H1791.87V461.125H1852.26V475.778H1791.87V516.99H1856.99V531.721H1775.07V407.93H1856.99V422.583ZM1891.34 516.99H1950.43V531.721H1874.55V407.93H1891.34V516.99ZM1983.03 531.721H1966.23V407.93H1983.03V531.721ZM2081.74 422.583H2016.54V461.125H2077.01V475.778H2016.54V516.99H2081.74V531.721H1999.75V407.93H2081.74V422.583ZM2178.62 422.583H2116.02V461.506H2173.74V476.083H2116.02V531.721H2099.23V407.93H2178.62V422.583ZM1580.06 433.726C1581.9 436.473 1583.73 439.144 1585.48 441.815C1587.24 444.487 1589 447.158 1590.75 449.829C1591.97 451.737 1593.2 453.645 1594.42 455.553C1595.64 453.645 1596.94 451.737 1598.16 449.829C1599.91 447.158 1601.67 444.487 1603.5 441.815C1605.33 439.144 1607.17 436.473 1608.92 433.726L1626.86 407.93H1645.46L1604.11 467.688L1648.01 531.644H1628.69L1607.4 500.734C1605.64 498.216 1603.96 495.697 1602.36 493.255C1600.68 490.813 1599.07 488.37 1597.39 485.852C1596.33 484.249 1595.26 482.647 1594.19 481.044C1593.12 482.646 1592.05 484.249 1590.98 485.852C1589.3 488.294 1587.62 490.813 1585.94 493.255C1584.26 495.773 1582.51 498.292 1580.83 500.811L1559.37 531.72H1540.44L1584.8 468.375L1543.27 407.93H1562.58L1580.06 433.726ZM1713.54 407.853C1722.24 407.853 1729.88 409.379 1736.21 412.432C1742.62 415.561 1747.51 419.911 1750.95 425.635C1754.38 431.359 1756.14 438.075 1756.14 445.936C1756.14 453.796 1754.3 460.512 1750.64 466.236C1746.98 471.96 1741.86 476.388 1735.3 479.44L1735.22 479.363C1733.69 480.126 1732.16 480.737 1730.48 481.271L1757.82 531.719H1738.73L1713.38 483.943H1683.69V531.643H1666.89V407.853H1713.54ZM859.764 435.861C854.344 435.861 849.763 437.235 846.022 439.906C842.205 442.577 839.38 446.47 837.395 451.583C835.41 456.696 834.418 462.879 834.418 469.977C834.418 477.074 835.41 483.18 837.395 488.217C839.38 493.254 842.205 497.146 846.022 499.817C849.839 502.489 854.344 503.862 859.764 503.862C865.184 503.862 869.842 502.489 873.583 499.817C877.323 497.146 880.224 493.254 882.132 488.217C884.041 483.18 885.034 477.15 885.034 469.977C885.034 462.803 884.041 456.696 882.132 451.583C880.224 446.47 877.323 442.577 873.583 439.906C869.765 437.235 865.184 435.861 859.764 435.861ZM1482.34 423.423C1480.13 430.368 1478.22 436.321 1476.62 441.281C1474.4 447.921 1472.42 454.027 1470.51 459.521L1461.88 483.792H1502.55L1494.18 459.599C1492.27 454.18 1490.28 448.073 1488.07 441.434C1486.47 436.397 1484.56 430.444 1482.34 423.423ZM521.107 263C520.992 263.339 450.412 471.736 449.497 474.405L379.567 404.496L521.107 263ZM1683.69 469.519H1712.93C1718.42 469.519 1723.23 468.602 1727.2 466.694C1731.17 464.786 1734.23 462.039 1736.36 458.528C1738.5 455.018 1739.57 450.896 1739.57 446.012C1739.57 441.127 1738.5 436.929 1736.36 433.495C1734.23 429.985 1731.1 427.313 1727.13 425.405C1723.16 423.421 1718.42 422.506 1712.85 422.506H1683.69V469.519ZM679.591 466.314H695.089C698.601 466.314 701.578 465.704 704.097 464.406C706.616 463.109 708.602 461.354 709.976 459.064C711.35 456.851 712.038 454.256 712.038 451.203C712.038 448.15 711.35 445.479 709.976 443.266C708.602 441.052 706.616 439.297 704.097 438C701.578 436.703 698.601 436.092 695.089 436.092H679.591V466.314ZM962.827 466.314H978.324C981.836 466.314 984.813 465.704 987.333 464.406C989.852 463.109 991.836 461.354 993.21 459.064C994.585 456.851 995.272 454.256 995.272 451.203C995.272 448.15 994.585 445.479 993.21 443.266C991.836 441.053 989.852 439.297 987.333 438C984.813 436.703 981.836 436.092 978.324 436.092H962.827V466.314ZM570.957 466.009H586.455C589.966 466.009 592.943 465.399 595.462 464.178C597.982 462.957 599.967 461.201 601.341 458.987C602.715 456.774 603.403 454.256 603.403 451.203C603.403 448.15 602.715 445.555 601.341 443.342C599.967 441.129 597.982 439.45 595.462 438.229C592.943 437.008 589.966 436.398 586.455 436.397H570.957V466.009ZM1645.57 407.93H1645.46L1645.57 407.777V407.93Z" fill="black"/>
</g>
<defs>
<filter id="filter0_ddd_75_509" x="-8" y="-5" width="2416" height="916" filterUnits="userSpaceOnUse" color-interpolation-filters="sRGB">
<feFlood flood-opacity="0" result="BackgroundImageFix"/>
<feColorMatrix in="SourceAlpha" type="matrix" values="0 0 0 0 0 0 0 0 0 0 0 0 0 0 0 0 0 0 127 0" result="hardAlpha"/>
<feOffset/>
<feGaussianBlur stdDeviation="0.25"/>
<feColorMatrix type="matrix" values="0 0 0 0 0 0 0 0 0 0 0 0 0 0 0 0 0 0 0.18 0"/>
<feBlend mode="normal" in2="BackgroundImageFix" result="effect1_dropShadow_75_509"/>
<feColorMatrix in="SourceAlpha" type="matrix" values="0 0 0 0 0 0 0 0 0 0 0 0 0 0 0 0 0 0 127 0" result="hardAlpha"/>
<feOffset dy="3"/>
<feGaussianBlur stdDeviation="4"/>
<feColorMatrix type="matrix" values="0 0 0 0 0 0 0 0 0 0 0 0 0 0 0 0 0 0 0.1 0"/>
<feBlend mode="normal" in2="effect1_dropShadow_75_509" result="effect2_dropShadow_75_509"/>
<feColorMatrix in="SourceAlpha" type="matrix" values="0 0 0 0 0 0 0 0 0 0 0 0 0 0 0 0 0 0 127 0" result="hardAlpha"/>
<feOffset dx="1" dy="3"/>
<feGaussianBlur stdDeviation="1.5"/>
<feColorMatrix type="matrix" values="0 0 0 0 0 0 0 0 0 0 0 0 0 0 0 0 0 0 0.1 0"/>
<feBlend mode="normal" in2="effect2_dropShadow_75_509" result="effect3_dropShadow_75_509"/>
<feBlend mode="normal" in="SourceGraphic" in2="effect3_dropShadow_75_509" result="shape"/>
</filter>
</defs>
</svg>
