<svg width="700" height="809" viewBox="0 0 700 809" fill="none" xmlns="http://www.w3.org/2000/svg">
<g clip-path="url(#clip0_2965_536)">
<path d="M369.761 330.159L700 0C700 0 535.036 486.806 532.849 493.053L369.761 330.003V330.159Z" fill="white"/>
<path d="M421.468 506.171L51.2386 136.187C45.771 130.72 41.7094 124.161 39.21 116.977C20.4642 61.3776 5.62374 17.4917 0 0.780701L470.832 471.5L477.081 477.747L516.76 517.416L533.787 534.44C570.966 571.61 576.746 629.708 547.69 673.282C547.69 673.282 547.69 673.281 547.69 673.125L506.293 631.738C480.674 606.125 439.746 604.72 412.564 628.459L213.077 809.156L244.789 707.484C263.535 647.356 247.289 581.918 202.767 537.407L196.362 531.004C180.116 514.761 167.775 494.927 160.433 473.062C152.622 449.791 141.375 416.994 128.565 379.199L324.303 574.89L348.36 558.022L123.566 333.283C112.944 322.663 104.977 309.856 100.134 295.644C88.2615 260.66 76.0768 224.583 64.3606 190.068L397.724 523.351L421.781 506.484L421.468 506.171Z" fill="white"/>
</g>
<defs>
<clipPath id="clip0_2965_536">
<rect width="700" height="809" fill="white"/>
</clipPath>
</defs>
</svg>
