<svg width="44" height="45" viewBox="0 0 44 45" fill="none" xmlns="http://www.w3.org/2000/svg">
<path d="M21.3254 1.38861C21.5989 0.825587 22.4011 0.825587 22.6746 1.38861L28.3191 13.0074C28.427 13.2295 28.6373 13.3842 28.8815 13.4212L41.4576 15.3252C42.0654 15.4172 42.3104 16.1613 41.8762 16.5965L32.7752 25.718C32.6046 25.889 32.5268 26.1316 32.5661 26.3699L34.6838 39.2029C34.785 39.8164 34.1388 40.2795 33.5904 39.9866L22.3534 33.9838C22.1326 33.8658 21.8674 33.8658 21.6466 33.9838L10.4096 39.9866C9.86123 40.2795 9.21501 39.8164 9.31624 39.2029L11.4339 26.3699C11.4732 26.1316 11.3954 25.889 11.2248 25.718L2.12378 16.5965C1.68957 16.1613 1.9346 15.4172 2.54244 15.3252L15.1185 13.4212C15.3627 13.3842 15.573 13.2295 15.6809 13.0074L21.3254 1.38861Z" fill="#FEA500"/>
</svg>
